<svg xmlns="http://www.w3.org/2000/svg" width="900" height="620"
viewBox="0 0 900 620">
<defs>
  <marker id="arrow" markerWidth="8" markerHeight="8" refX="7" refY="3" orient="auto">
    <path d="M0,0 L0,6 L7,3 z" fill="context-stroke"/>
  </marker>
</defs>
<rect width="100%" height="100%" fill="white"/>
<text x="20" y="28" font-size="18" font-weight="700">Layout: latent_start_easy_0001</text>
<rect x="70" y="70" width="760" height="480" fill="#fbfbfb" stroke="#222" stroke-width="2"/>
<rect x="355.0" y="462.0" width="114.0" height="16.0" fill="#9ca3af" opacity="0.85"><title>shelf_left</title></rect>
<rect x="355.0" y="142.0" width="114.0" height="16.0" fill="#9ca3af" opacity="0.85"><title>shelf_right</title></rect>
<line x1="108.0" y1="310.0" x2="773.0" y2="310.0" stroke="#2563eb" stroke-width="3" stroke-dasharray="8 8"/>
<line x1="108.0" y1="310.0" x2="773.0" y2="310.0" stroke="#93c5fd" stroke-width="40.0" stroke-opacity="0.22"/>
<circle cx="108.0" cy="310.0" r="8" fill="#2563eb" stroke="white" stroke-width="1.5"><title>UAV start</title></circle>
<polygon points="773.0,299.0 776.0,307.0 784.0,307.0 778.0,312.0 780.0,320.0 773.0,315.0 766.0,320.0 768.0,312.0 762.0,307.0 770.0,307.0" fill="#16a34a"><title>Goal</title></polygon>
<circle cx="450.0" cy="374.0" r="7" fill="#dc2626" stroke="white" stroke-width="1.5"><title>pedestrian_0 (pedestrian)</title></circle>
<line x1="450.0" y1="374.0" x2="450.0" y2="242.0" stroke="#dc2626" stroke-width="2" marker-end="url(#arrow)"/>
<circle cx="450.0" cy="242.0" r="4" fill="#dc2626" stroke="white" stroke-width="1.5"><title>cross</title></circle>

<g>
  <rect x="655" y="470" width="220" height="122" fill="white" stroke="#d1d5db"/>
  <text x="667" y="492" font-size="13" font-weight="700">Legend</text>
  <circle cx="673" cy="512" r="6" fill="#2563eb"/>
  <text x="687" y="516" font-size="12">UAV start</text>
  <polygon points="673,527 677,536 667,531 679,531 669,536" fill="#16a34a"/>
  <text x="687" y="535" font-size="12">Goal</text>
  <rect x="667" y="546" width="13" height="10" fill="#9ca3af"/>
  <text x="687" y="556" font-size="12">Static obstacle</text>
  <circle cx="673" cy="573" r="6" fill="#dc2626"/>
  <text x="687" y="577" font-size="12">Potential risk object</text>
</g>
</svg>
