<svg xmlns="http://www.w3.org/2000/svg" width="900" height="620"
viewBox="0 0 900 620">
<defs>
  <marker id="arrow" markerWidth="8" markerHeight="8" refX="7" refY="3" orient="auto">
    <path d="M0,0 L0,6 L7,3 z" fill="context-stroke"/>
  </marker>
</defs>
<rect width="100%" height="100%" fill="white"/>
<text x="20" y="28" font-size="18" font-weight="700">Layout: occlusion_emergence_medium_0001</text>
<rect x="70" y="70" width="760" height="480" fill="#fbfbfb" stroke="#222" stroke-width="2"/>
<rect x="406.8" y="310.0" width="17.3" height="130.3" fill="#111111" opacity="0.85"><title>occluding_wall</title></rect>
<rect x="446.5" y="243.1" width="76.0" height="17.1" fill="#9ca3af" opacity="0.85"><title>crate_stack</title></rect>
<line x1="121.8" y1="310.0" x2="760.9" y2="310.0" stroke="#2563eb" stroke-width="3" stroke-dasharray="8 8"/>
<line x1="121.8" y1="310.0" x2="760.9" y2="310.0" stroke="#93c5fd" stroke-width="37.7" stroke-opacity="0.22"/>
<circle cx="121.8" cy="310.0" r="8" fill="#2563eb" stroke="white" stroke-width="1.5"><title>UAV start</title></circle>
<polygon points="760.9,299.0 763.9,307.0 771.9,307.0 765.9,312.0 767.9,320.0 760.9,315.0 753.9,320.0 755.9,312.0 749.9,307.0 757.9,307.0" fill="#16a34a"><title>Goal</title></polygon>
<circle cx="436.2" cy="447.1" r="7" fill="#dc2626" stroke="white" stroke-width="1.5"><title>cart_0 (cart)</title></circle>
<line x1="436.2" y1="447.1" x2="443.1" y2="227.7" stroke="#dc2626" stroke-width="2" marker-end="url(#arrow)"/>
<circle cx="443.1" cy="227.7" r="4" fill="#dc2626" stroke="white" stroke-width="1.5"><title>emerge_cross</title></circle>

<g>
  <rect x="655" y="470" width="220" height="122" fill="white" stroke="#d1d5db"/>
  <text x="667" y="492" font-size="13" font-weight="700">Legend</text>
  <circle cx="673" cy="512" r="6" fill="#2563eb"/>
  <text x="687" y="516" font-size="12">UAV start</text>
  <polygon points="673,527 677,536 667,531 679,531 669,536" fill="#16a34a"/>
  <text x="687" y="535" font-size="12">Goal</text>
  <rect x="667" y="546" width="13" height="10" fill="#9ca3af"/>
  <text x="687" y="556" font-size="12">Static obstacle</text>
  <circle cx="673" cy="573" r="6" fill="#dc2626"/>
  <text x="687" y="577" font-size="12">Potential risk object</text>
</g>
</svg>
