<svg xmlns="http://www.w3.org/2000/svg" width="900" height="620"
viewBox="0 0 900 620">
<defs>
  <marker id="arrow" markerWidth="8" markerHeight="8" refX="7" refY="3" orient="auto">
    <path d="M0,0 L0,6 L7,3 z" fill="context-stroke"/>
  </marker>
</defs>
<rect width="100%" height="100%" fill="white"/>
<text x="20" y="28" font-size="18" font-weight="700">Layout: multi_intent_crossing_medium_0001</text>
<rect x="70" y="70" width="760" height="480" fill="#fbfbfb" stroke="#222" stroke-width="2"/>
<line x1="117.5" y1="310.0" x2="766.7" y2="310.0" stroke="#2563eb" stroke-width="3" stroke-dasharray="8 8"/>
<line x1="117.5" y1="310.0" x2="766.7" y2="310.0" stroke="#93c5fd" stroke-width="36.0" stroke-opacity="0.22"/>
<circle cx="117.5" cy="310.0" r="8" fill="#2563eb" stroke="white" stroke-width="1.5"><title>UAV start</title></circle>
<polygon points="766.7,299.0 769.7,307.0 777.7,307.0 771.7,312.0 773.7,320.0 766.7,315.0 759.7,320.0 761.7,312.0 755.7,307.0 763.7,307.0" fill="#16a34a"><title>Goal</title></polygon>
<circle cx="370.8" cy="395.7" r="7" fill="#dc2626" stroke="white" stroke-width="1.5"><title>pedestrian_0 (pedestrian)</title></circle>
<line x1="370.8" y1="395.7" x2="481.7" y2="385.4" stroke="#f97316" stroke-width="2" marker-end="url(#arrow)"/>
<circle cx="481.7" cy="385.4" r="4" fill="#f97316" stroke="white" stroke-width="1.5"><title>continue_parallel</title></circle>
<line x1="370.8" y1="395.7" x2="434.2" y2="251.7" stroke="#dc2626" stroke-width="2" marker-end="url(#arrow)"/>
<circle cx="434.2" cy="251.7" r="4" fill="#dc2626" stroke="white" stroke-width="1.5"><title>cross_left_to_right</title></circle>
<line x1="370.8" y1="395.7" x2="370.8" y2="371.7" stroke="#f97316" stroke-width="2" marker-end="url(#arrow)"/>
<circle cx="370.8" cy="371.7" r="4" fill="#f97316" stroke="white" stroke-width="1.5"><title>yield</title></circle>
<circle cx="481.7" cy="234.6" r="7" fill="#dc2626" stroke="white" stroke-width="1.5"><title>mobile_robot_0 (mobile_robot)</title></circle>
<line x1="481.7" y1="234.6" x2="481.7" y2="371.7" stroke="#dc2626" stroke-width="2" marker-end="url(#arrow)"/>
<circle cx="481.7" cy="371.7" r="4" fill="#dc2626" stroke="white" stroke-width="1.5"><title>cross_right_to_left</title></circle>

<g>
  <rect x="655" y="470" width="220" height="122" fill="white" stroke="#d1d5db"/>
  <text x="667" y="492" font-size="13" font-weight="700">Legend</text>
  <circle cx="673" cy="512" r="6" fill="#2563eb"/>
  <text x="687" y="516" font-size="12">UAV start</text>
  <polygon points="673,527 677,536 667,531 679,531 669,536" fill="#16a34a"/>
  <text x="687" y="535" font-size="12">Goal</text>
  <rect x="667" y="546" width="13" height="10" fill="#9ca3af"/>
  <text x="687" y="556" font-size="12">Static obstacle</text>
  <circle cx="673" cy="573" r="6" fill="#dc2626"/>
  <text x="687" y="577" font-size="12">Potential risk object</text>
</g>
</svg>
