<svg xmlns="http://www.w3.org/2000/svg" width="900" height="620"
viewBox="0 0 900 620">
<defs>
  <marker id="arrow" markerWidth="8" markerHeight="8" refX="7" refY="3" orient="auto">
    <path d="M0,0 L0,6 L7,3 z" fill="context-stroke"/>
  </marker>
</defs>
<rect width="100%" height="100%" fill="white"/>
<text x="20" y="28" font-size="18" font-weight="700">Layout: vehicle_forklift_launch_hard_0001</text>
<rect x="70" y="70" width="760" height="480" fill="#fbfbfb" stroke="#222" stroke-width="2"/>
<rect x="274.6" y="412.0" width="58.5" height="36.0" fill="#9ca3af" opacity="0.85"><title>pallet_stack_0</title></rect>
<rect x="530.4" y="169.0" width="73.1" height="42.0" fill="#9ca3af" opacity="0.85"><title>pallet_stack_1</title></rect>
<line x1="128.5" y1="310.0" x2="771.5" y2="310.0" stroke="#2563eb" stroke-width="3" stroke-dasharray="8 8"/>
<line x1="128.5" y1="310.0" x2="771.5" y2="310.0" stroke="#93c5fd" stroke-width="42.0" stroke-opacity="0.22"/>
<circle cx="128.5" cy="310.0" r="8" fill="#2563eb" stroke="white" stroke-width="1.5"><title>UAV start</title></circle>
<polygon points="771.5,299.0 774.5,307.0 782.5,307.0 776.5,312.0 778.5,320.0 771.5,315.0 764.5,320.0 766.5,312.0 760.5,307.0 768.5,307.0" fill="#16a34a"><title>Goal</title></polygon>
<circle cx="479.2" cy="394.0" r="7" fill="#dc2626" stroke="white" stroke-width="1.5"><title>forklift_0 (forklift)</title></circle>
<line x1="479.2" y1="394.0" x2="479.2" y2="211.0" stroke="#dc2626" stroke-width="2" marker-end="url(#arrow)"/>
<circle cx="479.2" cy="211.0" r="4" fill="#dc2626" stroke="white" stroke-width="1.5"><title>launch_forward</title></circle>
<line x1="479.2" y1="394.0" x2="596.2" y2="310.0" stroke="#dc2626" stroke-width="2" marker-end="url(#arrow)"/>
<circle cx="596.2" cy="310.0" r="4" fill="#dc2626" stroke="white" stroke-width="1.5"><title>turn_into_corridor</title></circle>

<g>
  <rect x="655" y="470" width="220" height="122" fill="white" stroke="#d1d5db"/>
  <text x="667" y="492" font-size="13" font-weight="700">Legend</text>
  <circle cx="673" cy="512" r="6" fill="#2563eb"/>
  <text x="687" y="516" font-size="12">UAV start</text>
  <polygon points="673,527 677,536 667,531 679,531 669,536" fill="#16a34a"/>
  <text x="687" y="535" font-size="12">Goal</text>
  <rect x="667" y="546" width="13" height="10" fill="#9ca3af"/>
  <text x="687" y="556" font-size="12">Static obstacle</text>
  <circle cx="673" cy="573" r="6" fill="#dc2626"/>
  <text x="687" y="577" font-size="12">Potential risk object</text>
</g>
</svg>
