<svg xmlns="http://www.w3.org/2000/svg" width="980" height="560" viewBox="0 0 980 560"><rect width="100%" height="100%" fill="white" /><text x="40" y="32" font-size="20" font-weight="700">Stage 7 Aggregate Reward Bars</text><line x1="80" y1="386" x2="920" y2="386" stroke="#333" /><line x1="80" y1="56" x2="80" y2="386" stroke="#333" /><text x="22" y="74" font-size="12">mean reward</text><rect x="93.4" y="56.0" width="67.2" height="330.0" fill="#1f77b4" /><text x="127.0" y="404" font-size="10" text-anchor="end" transform="rotate(-35 127.0,404)">full_pirl_nav_skeleton</text><rect x="186.8" y="68.3" width="67.2" height="317.7" fill="#d62728" /><text x="220.4" y="404" font-size="10" text-anchor="end" transform="rotate(-35 220.4,404)">no_action_conditioning</text><rect x="280.1" y="65.2" width="67.2" height="320.8" fill="#2ca02c" /><text x="313.7" y="404" font-size="10" text-anchor="end" transform="rotate(-35 313.7,404)">no_intent_prediction</text><rect x="373.4" y="71.4" width="67.2" height="314.6" fill="#9467bd" /><text x="407.0" y="404" font-size="10" text-anchor="end" transform="rotate(-35 407.0,404)">no_risk_constraint</text><rect x="466.8" y="62.2" width="67.2" height="323.8" fill="#ff7f0e" /><text x="500.4" y="404" font-size="10" text-anchor="end" transform="rotate(-35 500.4,404)">no_shield_internalization</text><rect x="560.1" y="65.2" width="67.2" height="320.8" fill="#17becf" /><text x="593.7" y="404" font-size="10" text-anchor="end" transform="rotate(-35 593.7,404)">ppo_lagrangian_no_intent</text><rect x="653.4" y="68.3" width="67.2" height="317.7" fill="#8c564b" /><text x="687.0" y="404" font-size="10" text-anchor="end" transform="rotate(-35 687.0,404)">ppo_semantic_risk_proxy</text><rect x="746.8" y="68.3" width="67.2" height="317.7" fill="#e377c2" /><text x="780.4" y="404" font-size="10" text-anchor="end" transform="rotate(-35 780.4,404)">ppo_ttc_proxy</text><rect x="840.1" y="74.5" width="67.2" height="311.5" fill="#7f7f7f" /><text x="873.7" y="404" font-size="10" text-anchor="end" transform="rotate(-35 873.7,404)">vanilla_ppo</text></svg>
