<svg xmlns="http://www.w3.org/2000/svg" width="900" height="520" viewBox="0 0 900 520"><rect width="100%" height="100%" fill="white" /><text x="40" y="32" font-size="20" font-weight="700">Stage 7 Risk Exposure Curves</text><line x1="80" y1="412" x2="840" y2="412" stroke="#333" /><line x1="80" y1="52" x2="80" y2="412" stroke="#333" /><text x="22" y="70" font-size="12">risk exposure</text><polyline points="80.0,85.0 460.0,173.0 840.0,261.0" fill="none" stroke="#1f77b4" stroke-width="2.2" /><rect x="690" y="52" width="12" height="12" fill="#1f77b4" /><text x="708" y="63" font-size="12">full_pirl_nav_skeleton</text><polyline points="80.0,63.0 460.0,129.0 840.0,195.0" fill="none" stroke="#d62728" stroke-width="2.2" /><rect x="690" y="72" width="12" height="12" fill="#d62728" /><text x="708" y="83" font-size="12">no_action_conditioning</text><polyline points="80.0,68.5 460.0,140.0 840.0,211.5" fill="none" stroke="#2ca02c" stroke-width="2.2" /><rect x="690" y="92" width="12" height="12" fill="#2ca02c" /><text x="708" y="103" font-size="12">no_intent_prediction</text><polyline points="80.0,57.5 460.0,118.0 840.0,178.5" fill="none" stroke="#9467bd" stroke-width="2.2" /><rect x="690" y="112" width="12" height="12" fill="#9467bd" /><text x="708" y="123" font-size="12">no_risk_constraint</text><polyline points="80.0,74.0 460.0,151.0 840.0,228.0" fill="none" stroke="#ff7f0e" stroke-width="2.2" /><rect x="690" y="132" width="12" height="12" fill="#ff7f0e" /><text x="708" y="143" font-size="12">no_shield_internalization</text><polyline points="80.0,68.5 460.0,140.0 840.0,211.5" fill="none" stroke="#17becf" stroke-width="2.2" /><rect x="690" y="152" width="12" height="12" fill="#17becf" /><text x="708" y="163" font-size="12">ppo_lagrangian_no_intent</text><polyline points="80.0,63.0 460.0,129.0 840.0,195.0" fill="none" stroke="#8c564b" stroke-width="2.2" /><rect x="690" y="172" width="12" height="12" fill="#8c564b" /><text x="708" y="183" font-size="12">ppo_semantic_risk_proxy</text><polyline points="80.0,63.0 460.0,129.0 840.0,195.0" fill="none" stroke="#e377c2" stroke-width="2.2" /><rect x="690" y="192" width="12" height="12" fill="#e377c2" /><text x="708" y="203" font-size="12">ppo_ttc_proxy</text><polyline points="80.0,52.0 460.0,107.0 840.0,162.0" fill="none" stroke="#7f7f7f" stroke-width="2.2" /><rect x="690" y="212" width="12" height="12" fill="#7f7f7f" /><text x="708" y="223" font-size="12">vanilla_ppo</text></svg>
