<svg xmlns="http://www.w3.org/2000/svg" width="760" height="520" viewBox="0 0 760 520"><rect width="100%" height="100%" fill="white" /><text x="40" y="32" font-size="20" font-weight="700">vanilla_ppo policy_plus_shield occlusion_emergence_medium_0001</text><rect x="60" y="55" width="620" height="360" fill="#fbfbfb" stroke="#333" /><rect x="334.8" y="235.0" width="14.1" height="97.7" fill="#999" /><rect x="367.2" y="184.9" width="62.0" height="12.9" fill="#999" /><circle cx="358.7" cy="337.9" r="10" fill="#d62728" opacity="0.75" /><circle cx="358.7" cy="337.9" r="31.0" fill="none" stroke="#d62728" stroke-dasharray="4 3" /><circle cx="102.3" cy="235.0" r="7" fill="#2ca02c" /><rect x="616.6" y="228.0" width="14" height="14" fill="#1f77b4" /><polyline points="102.3,235.0 104.3,235.0 107.6,235.0 110.9,235.0 114.3,235.0 117.6,235.0 120.9,235.0 124.2,235.0 127.5,235.0 130.9,235.0 134.2,235.0 137.5,235.0 140.8,235.0 144.1,235.0 147.5,235.0 150.8,235.0 154.1,235.0 157.4,235.0 160.7,235.0 164.1,235.0 167.4,235.0 170.7,235.0 174.0,235.0 177.3,235.0 180.7,235.0" fill="none" stroke="#111" stroke-width="2.5" /><text x="60" y="450" font-size="13">green=start, blue=goal, red=latent-risk object, orange=shield intervention</text></svg>
