<svg xmlns="http://www.w3.org/2000/svg" width="760" height="520" viewBox="0 0 760 520"><rect width="100%" height="100%" fill="white" /><text x="40" y="32" font-size="20" font-weight="700">full_pirl_nav_skeleton policy_plus_shield occlusion_emergence_medium_0001</text><rect x="60" y="55" width="620" height="360" fill="#fbfbfb" stroke="#333" /><rect x="334.8" y="235.0" width="14.1" height="97.7" fill="#999" /><rect x="367.2" y="184.9" width="62.0" height="12.9" fill="#999" /><circle cx="358.7" cy="337.9" r="10" fill="#d62728" opacity="0.75" /><circle cx="358.7" cy="337.9" r="31.0" fill="none" stroke="#d62728" stroke-dasharray="4 3" /><circle cx="102.3" cy="235.0" r="7" fill="#2ca02c" /><rect x="616.6" y="228.0" width="14" height="14" fill="#1f77b4" /><polyline points="102.3,235.0 104.3,235.0 107.4,235.0 110.4,235.0 113.5,235.0 116.5,235.0 119.6,235.0 122.6,235.0 125.7,235.0 128.7,235.0 131.8,235.0 134.8,235.0 137.9,235.0 140.9,235.0 144.0,235.0 147.0,235.0 150.1,235.0 153.1,235.0 156.2,235.0 159.2,235.0 162.3,235.0 165.3,235.0 168.4,235.0 171.4,235.0 174.5,235.0" fill="none" stroke="#111" stroke-width="2.5" /><text x="60" y="450" font-size="13">green=start, blue=goal, red=latent-risk object, orange=shield intervention</text></svg>
