<svg xmlns="http://www.w3.org/2000/svg" width="760" height="520" viewBox="0 0 760 520"><rect width="100%" height="100%" fill="white" /><text x="40" y="32" font-size="20" font-weight="700">vanilla_ppo policy_only occlusion_emergence_medium_0001</text><rect x="60" y="55" width="620" height="360" fill="#fbfbfb" stroke="#333" /><rect x="334.8" y="235.0" width="14.1" height="97.7" fill="#999" /><rect x="367.2" y="184.9" width="62.0" height="12.9" fill="#999" /><circle cx="358.7" cy="337.9" r="10" fill="#d62728" opacity="0.75" /><circle cx="358.7" cy="337.9" r="31.0" fill="none" stroke="#d62728" stroke-dasharray="4 3" /><circle cx="102.3" cy="235.0" r="7" fill="#2ca02c" /><rect x="616.6" y="228.0" width="14" height="14" fill="#1f77b4" /><polyline points="102.3,235.0 104.3,235.0 107.8,235.0 111.3,235.0 114.8,235.0 118.3,235.0 121.8,235.0 125.3,235.0 128.8,235.0 132.3,235.0 135.8,235.0 139.2,235.0 142.7,235.0 146.2,235.0 149.7,235.0 153.2,235.0 156.7,235.0 160.2,235.0 163.7,235.0 167.2,235.0 170.7,235.0 174.2,235.0 177.7,235.0 181.2,235.0 184.7,235.0" fill="none" stroke="#111" stroke-width="2.5" /><text x="60" y="450" font-size="13">green=start, blue=goal, red=latent-risk object, orange=shield intervention</text></svg>
